<?xml version="1.0" standalone="no"?>
<!DOCTYPE svg PUBLIC "-//W3C//DTD SVG 20010904//EN"
 "http://www.w3.org/TR/2001/REC-SVG-20010904/DTD/svg10.dtd">
<svg version="1.0" xmlns="http://www.w3.org/2000/svg"
 width="260.000000pt" height="260.000000pt" viewBox="0 0 260.000000 260.000000"
 preserveAspectRatio="xMidYMid meet">
<metadata>
Created by potrace 1.11, written by Peter Selinger 2001-2013
</metadata>
<g transform="translate(0.000000,260.000000) scale(0.100000,-0.100000)"
fill="#000000" stroke="none">
<path d="M43 2590 c-12 -5 -26 -18 -32 -29 -8 -14 -11 -403 -11 -1266 l0
-1246 25 -24 24 -25 1251 0 1251 0 25 25 24 24 -2 1257 -3 1256 -24 19 c-23
18 -57 19 -1265 18 -690 0 -1251 -4 -1263 -9z m657 -680 c0 -9 -18 -15 -65
-22 -19 -3 -20 -12 -23 -285 l-2 -282 45 -6 c90 -14 41 -25 -110 -25 -150 0
-199 11 -115 25 l40 7 0 284 0 284 -24 0 c-31 0 -56 10 -56 21 0 5 70 9 155 9
95 0 155 -4 155 -10z m394 -198 c49 -114 92 -211 96 -215 4 -4 49 89 101 207
l94 216 128 0 c129 0 164 -11 85 -27 l-43 -9 -3 -281 -2 -282 45 -6 c90 -14
41 -25 -110 -25 -150 0 -199 11 -115 25 l40 7 -1 261 c0 173 -4 255 -10 242
-5 -11 -60 -135 -123 -275 -66 -149 -118 -255 -126 -255 -8 0 -61 110 -130
267 -64 148 -120 271 -123 275 -4 3 -7 -111 -7 -255 l0 -261 45 -7 c80 -12 48
-24 -65 -24 -110 0 -145 12 -70 25 l40 7 0 284 0 284 -24 0 c-31 0 -56 10 -56
21 0 5 55 9 123 9 l122 0 89 -208z m1050 178 c63 -32 88 -65 94 -129 14 -150
-64 -221 -245 -221 l-73 0 0 -109 0 -110 55 -6 c105 -14 54 -25 -110 -25 -159
0 -211 10 -125 25 l40 7 0 284 0 284 -24 0 c-32 0 -56 10 -56 22 0 6 72 9 198
6 187 -3 200 -4 246 -28z m-1564 -929 c-23 -6 -25 -12 -28 -69 l-3 -62 76 0
75 0 0 60 c0 54 -3 62 -22 70 -17 6 -3 9 52 9 55 0 69 -3 53 -9 -22 -9 -23
-14 -23 -149 0 -137 0 -140 23 -144 12 -2 -12 -4 -53 -4 -41 0 -65 2 -52 4 20
4 22 10 22 74 l0 69 -75 0 -75 0 0 -69 c0 -64 2 -70 23 -74 12 -2 -12 -4 -53
-4 -41 0 -65 2 -52 4 22 4 22 7 22 144 0 135 -1 140 -22 149 -17 6 0 9 57 8
48 0 70 -3 55 -7z m520 -9 c46 -22 70 -72 70 -142 0 -96 -47 -147 -143 -157
-44 -4 -64 -1 -100 16 -56 27 -77 68 -77 148 0 70 25 117 73 138 45 20 135 19
177 -3z m420 -22 c0 -22 -4 -40 -10 -40 -5 0 -10 14 -10 30 0 29 -1 30 -50 30
l-50 0 0 -139 c0 -137 0 -140 23 -144 12 -2 -14 -4 -58 -4 -44 0 -70 2 -57 4
22 4 22 7 22 144 l0 139 -50 0 c-49 0 -50 -1 -50 -30 0 -16 -4 -30 -10 -30 -5
0 -10 18 -10 40 l0 40 155 0 155 0 0 -40z m290 5 c0 -19 -4 -35 -10 -35 -5 0
-10 11 -10 25 0 24 -2 25 -70 25 l-70 0 0 -65 0 -65 45 0 c38 0 47 4 55 23 7
17 9 12 9 -28 0 -40 -2 -45 -9 -27 -8 18 -17 22 -55 22 l-45 0 0 -70 0 -70 68
0 c73 0 92 10 92 47 0 13 5 23 10 23 11 0 13 -24 4 -57 -6 -23 -9 -23 -143
-22 -75 1 -128 3 -118 6 15 4 17 20 17 148 0 141 0 144 -22 148 -13 2 39 5
115 6 l137 1 0 -35z m198 28 l-28 -4 0 -145 0 -144 71 0 70 0 15 36 c18 44 29
38 20 -11 l-7 -35 -137 1 c-75 1 -129 3 -119 6 15 4 17 20 17 148 0 141 0 144
-22 148 -13 2 15 4 62 4 47 0 73 -2 58 -4z"/>
<path d="M1920 1730 l0 -150 43 0 c61 0 109 27 124 70 18 52 16 130 -5 170
-21 43 -53 60 -114 60 l-48 0 0 -150z"/>
<path d="M953 936 c-25 -21 -28 -31 -31 -100 -7 -124 15 -166 87 -166 65 0 91
40 91 141 0 74 -20 126 -55 139 -40 15 -61 12 -92 -14z"/>
</g>
</svg>
